<svg width="102" height="102" viewBox="0 0 102 102" fill="none" xmlns="http://www.w3.org/2000/svg">
<g clip-path="url(#clip0)">
<path d="M51 63.7421C49.2398 63.7421 47.813 62.3151 47.813 60.555V38.2456C47.813 36.4855 49.2398 35.0585 51 35.0585C52.7603 35.0585 54.1871 36.4855 54.1871 38.2456V60.555C54.1871 62.3153 52.7603 63.7421 51 63.7421Z" fill="#ffd700"/>
<path d="M100.651 79.7431L60.9738 13.6155C56.4721 6.10979 45.5373 6.09525 41.0268 13.6155L1.34965 79.7431C-2.40252 85.9967 2.11175 94.0192 9.43284 94.0192H92.5674C99.8897 94.0192 104.402 85.9958 100.651 79.7431ZM92.5674 87.6451H9.43304C7.05828 87.6451 5.60219 85.0416 6.81566 83.0218L46.4926 16.8942C48.5282 13.5014 53.4699 13.4974 55.508 16.8942L95.185 83.0218C96.3971 85.0394 94.9444 87.6451 92.5674 87.6451Z" fill="#ffd700"/>
<path d="M51.0003 76.4903C53.6406 76.4903 55.7809 74.35 55.7809 71.7097C55.7809 69.0695 53.6406 66.9291 51.0003 66.9291C48.3601 66.9291 46.2197 69.0695 46.2197 71.7097C46.2197 74.35 48.3601 76.4903 51.0003 76.4903Z" fill="#ffd700"/>
</g>
<defs>
<clipPath id="clip0">
<rect width="102" height="102" fill="white"/>
</clipPath>
</defs>
</svg>
