<svg width="27" height="27" viewBox="0 0 27 27" fill="none" xmlns="http://www.w3.org/2000/svg">
<path d="M4.80916 13.7184L12.4599 21.3694C12.6783 21.5878 12.9694 21.7076 13.2797 21.7076C13.5904 21.7076 13.8814 21.5876 14.0998 21.3694L14.7944 20.6746C15.0126 20.4565 15.1328 20.1653 15.1328 19.8547C15.1328 19.5443 15.0126 19.2433 14.7944 19.0252L10.3311 14.5521L24.5113 14.5521C25.1506 14.5521 25.6558 14.0516 25.6558 13.412L25.6558 12.4298C25.6558 11.7903 25.1506 11.2393 24.5113 11.2393L10.2804 11.2393L14.7942 6.74116C15.0124 6.52276 15.1326 6.23943 15.1326 5.92889C15.1326 5.61869 15.0124 5.33123 14.7942 5.11301L14.0996 4.42045C13.8812 4.20205 13.5903 4.08304 13.2796 4.08304C12.9692 4.08304 12.6781 4.2036 12.4597 4.422L4.80899 12.0727C4.59008 12.2918 4.46969 12.5843 4.47055 12.8952C4.46986 13.2071 4.59008 13.4997 4.80916 13.7184Z" fill="white"/>
</svg>
